# This file uses centimeters as units for non-parametric coordinates.

mtllib level_1_wall.mtl
g default
v -1280.092128 -9.851156 197.173564
v -1254.581123 -44.606316 197.173564
v -1253.524897 -44.606316 -181.818696
v -1280.092128 69.324588 197.173564
v -1254.581123 -9.851153 197.173564
v -1185.977619 -44.606316 197.173564
v -1185.977619 -44.606316 -181.818696
v -1280.092128 69.324588 -181.818696
v -1254.581123 69.324588 197.173564
v -1185.977619 -9.851156 197.173564
v -1185.977619 15.372573 -181.818696
v -1254.581123 69.324588 -181.818696
v -1185.977619 69.324588 197.173564
v -1185.977619 69.324588 -181.818696
v -1280.092128 -44.606316 -181.896757
v -1185.977619 37.149388 -181.818696
v -1185.977619 36.180986 197.173564
v -1254.581123 36.180995 197.173564
v -1280.092128 36.180986 197.173564
v -1305.603160 -44.606316 197.173564
v -1306.659386 -44.606316 -181.818696
v -1305.603160 -9.851153 197.173564
v -1374.206637 -44.606316 197.173564
v -1374.206637 -44.606316 -181.818696
v -1305.603160 69.324588 197.173564
v -1374.206637 -9.851156 197.173564
v -1374.206637 15.372573 -181.818696
v -1305.603160 69.324588 -181.818696
v -1374.206637 69.324588 197.173564
v -1374.206637 69.324588 -181.818696
v -1374.206637 37.149388 -181.818696
v -1374.206637 36.180986 197.173564
v -1305.603160 36.180995 197.173564
v -1374.206637 41.656483 -179.026986
v -1374.206637 40.695891 194.389663
v -1374.206637 66.115018 -179.026986
v -1374.206637 66.115018 194.381889
v -1378.169490 41.656483 -179.026986
v -1378.169490 40.695891 194.389663
v -1378.169490 66.115018 -179.026986
v -1378.169490 66.115018 194.381889
v -1378.169490 41.501143 -90.813821
v -1374.206637 41.501143 -90.813821
v -1374.206637 36.992788 -90.813821
v -1374.206637 14.928330 -90.813821
v -1374.206637 -44.606316 -90.813821
v -1185.977619 -44.606316 -89.426299
v -1185.977619 14.928330 -89.426299
v -1185.977619 36.992788 -89.426299
v -1185.977619 69.324588 -89.426299
v -1254.581123 69.324588 -89.426299
v -1280.092128 69.324588 -89.426299
v -1305.603160 69.324588 -89.426299
v -1374.206637 69.324588 -89.426299
v -1374.206637 66.115018 -89.426299
v -1378.169490 66.115018 -89.426299
v -1378.169490 41.642870 -172.246917
v -1374.206637 41.642870 -172.246917
v -1374.206637 37.135668 -172.246952
v -1374.206637 15.333649 -172.246952
v -1374.206637 -44.606316 -172.246952
v -1185.977619 -44.606316 -172.246952
v -1185.977619 15.333649 -172.246952
v -1185.977619 37.135668 -172.246952
v -1185.977619 69.324588 -172.246952
v -1254.581123 69.324588 -172.246952
v -1280.092128 69.324588 -172.246952
v -1305.603160 69.324588 -172.246952
v -1374.206637 69.324588 -172.246952
v -1374.206637 66.115018 -172.246917
v -1378.169490 66.115018 -172.246917
v -1254.282742 37.149388 -181.818696
v -1253.901011 15.372573 -181.818696
v -1305.901461 37.149388 -181.818696
v -1306.283290 15.372573 -181.818696
v -1280.093033 37.149388 -181.818696
v -1280.094143 15.372573 -181.818696
v -1378.169490 40.800291 157.412750
v -1374.206637 40.800291 157.412750
v -1374.206637 36.286238 159.835722
v -1374.206637 -6.638473 159.835722
v -1374.206637 -44.606316 159.835722
v -1185.977619 -44.606316 160.015610
v -1185.977619 -6.638473 160.015610
v -1185.977619 36.286238 160.015610
v -1185.977619 69.324588 160.015610
v -1254.581123 69.324588 160.015610
v -1280.092128 69.324588 160.015610
v -1305.603160 69.324588 160.015610
v -1374.206637 69.324588 160.015610
v -1374.206637 66.115009 157.585858
v -1378.169490 66.115009 157.585858
vt 0.497136 0.196191
vt 0.497136 0.097358
vt 0.527998 0.097358
vt 0.527998 0.196191
vt 0.527998 0.000000
vt 0.625000 0.000000
vt 0.625000 0.097358
vt 0.652171 0.000000
vt 0.652171 0.097358
vt 0.497136 0.277171
vt 0.497136 0.250000
vt 0.527998 0.250000
vt 0.527998 0.277171
vt 0.652171 0.196191
vt 0.625000 0.196191
vt 0.625000 0.250000
vt 0.625000 0.277171
vt 0.340965 0.000000
vt 0.967230 0.000000
vt 0.967230 1.000000
vt 0.340965 1.000000
vt 0.000000 0.000000
vt 0.000000 1.000000
vt 0.652171 0.250000
vt 0.497136 0.196191
vt 0.527998 0.196191
vt 0.527998 0.097358
vt 0.497136 0.097358
vt 0.625000 0.097358
vt 0.625000 0.000000
vt 0.527998 0.000000
vt 0.652171 0.097358
vt 0.652171 0.000000
vt 0.497136 0.277171
vt 0.527998 0.277171
vt 0.527998 0.250000
vt 0.497136 0.250000
vt 0.625000 0.196191
vt 0.652171 0.196191
vt 0.625000 0.277171
vt 0.625000 0.250000
vt 0.340965 0.000000
vt 0.340965 1.000000
vt 0.967230 1.000000
vt 0.967230 0.000000
vt 0.000000 0.000000
vt 0.000000 1.000000
vt 0.625000 0.196191
vt 0.652171 0.196191
vt 0.875000 0.196191
vt 0.875000 0.196191
vt 0.875000 0.250000
vt 0.875000 0.250000
vt 0.652171 0.250000
vt 0.652171 0.250000
vt 0.625000 0.250000
vt 0.000000 0.000000
vt 0.000000 1.000000
vt 0.108685 1.000000
vt 0.108685 0.000000
vt 0.000000 0.000000
vt 0.000000 1.000000
vt 1.000000 1.000000
vt 1.000000 0.000000
vt 0.891315 0.000000
vt 0.891315 1.000000
vt 1.000000 1.000000
vt 1.000000 0.000000
vt 0.000000 0.000000
vt 0.000000 1.000000
vt 1.000000 1.000000
vt 1.000000 0.000000
vt 0.838286 0.000000
vt 0.838286 1.000000
vt 0.985831 1.000000
vt 0.985831 0.000000
vt 0.834572 0.196191
vt 0.834572 0.196191
vt 0.871458 0.196191
vt 0.871458 0.196191
vt 0.834572 0.097358
vt 0.871458 0.097358
vt 0.834572 0.000000
vt 0.871458 0.000000
vt 0.834572 0.196191
vt 0.834572 0.097358
vt 0.871458 0.097358
vt 0.871458 0.196191
vt 0.871458 0.250000
vt 0.834572 0.250000
vt 0.527998 0.496458
vt 0.527998 0.459572
vt 0.625000 0.459572
vt 0.625000 0.496458
vt 0.497136 0.496458
vt 0.497136 0.459572
vt 0.497136 0.496458
vt 0.527998 0.496458
vt 0.527998 0.459572
vt 0.497136 0.459572
vt 0.625000 0.496458
vt 0.625000 0.459572
vt 0.871458 0.250000
vt 0.871458 0.250000
vt 0.834572 0.250000
vt 0.834572 0.250000
vt 0.014169 0.000000
vt 0.014169 1.000000
vt 0.161714 1.000000
vt 0.161714 0.000000
vt 1.000000 1.000000
vt 1.000000 0.000000
vt 0.875000 0.097358
vt 0.875000 0.000000
vt 0.527998 0.750000
vt 0.000000 1.000000
vt 0.000000 0.000000
vt 0.625000 0.750000
vt 0.871458 0.000000
vt 0.875000 0.000000
vt 0.875000 0.097358
vt 0.875000 0.196191
vt 0.875000 0.250000
vt 0.527998 0.500000
vt 0.625000 0.500000
vt 0.497136 0.500000
vt 0.497136 0.500000
vt 0.527998 0.500000
vt 0.625000 0.500000
vt 0.000000 0.000000
vt 0.000000 1.000000
vt 0.875000 0.196191
vt 0.875000 0.097358
vt 0.875000 0.196191
vt 0.875000 0.097358
vt 0.875000 0.196191
vt 0.875000 0.097358
vt 0.834572 0.000000
vn 0.000000 0.000000 -1.000000
vn 0.000000 0.000000 -1.000000
vn 0.000000 0.000000 -1.000000
vn 0.000000 0.000000 -1.000000
vn 0.000000 0.000000 -1.000000
vn 0.000000 0.000000 -1.000000
vn 0.000000 0.000000 -1.000000
vn 0.000000 0.000000 -1.000000
vn -1.000000 0.000000 0.000000
vn -1.000000 0.000000 0.000000
vn -1.000000 0.000000 0.000000
vn -1.000000 0.000000 0.000000
vn 0.000000 -1.000000 0.000000
vn 0.000000 -1.000000 0.000000
vn 0.000000 -1.000000 0.000000
vn 0.000000 -1.000000 0.000000
vn -1.000000 0.000000 0.000000
vn -1.000000 0.000000 0.000000
vn 0.000000 -1.000000 0.000000
vn 0.000000 -1.000000 0.000000
vn 0.000000 0.000000 -1.000000
vn 0.000000 0.000000 -1.000000
vn 0.000000 0.000000 -1.000000
vn 0.000000 0.000000 -1.000000
vn 0.000000 0.000000 -1.000000
vn 0.000000 0.000000 -1.000000
vn 0.000000 0.000000 -1.000000
vn 0.000000 0.000000 -1.000000
vn -1.000000 0.000000 0.000000
vn -1.000000 0.000000 0.000000
vn -0.000000 0.000000 -1.000000
vn -0.000000 0.000000 -1.000000
vn -0.000000 0.000000 -1.000000
vn -0.000000 0.000000 -1.000000
vn 0.000000 0.000000 -1.000000
vn 0.000000 0.000000 -1.000000
vn 0.000000 0.000000 -1.000000
vn 0.000000 0.000000 -1.000000
vn 1.000000 0.000000 0.000000
vn 1.000000 0.000000 0.000000
vn 1.000000 0.000000 0.000000
vn 1.000000 0.000000 0.000000
vn 0.000000 -1.000000 0.000000
vn 0.000000 -1.000000 0.000000
vn 0.000000 -1.000000 0.000000
vn 0.000000 -1.000000 0.000000
vn 1.000000 -0.000000 0.000000
vn 1.000000 0.000000 0.000000
vn 0.000000 -1.000000 0.000000
vn 0.000000 -1.000000 0.000000
vn 0.000000 0.000000 -1.000000
vn 0.000000 0.000000 -1.000000
vn 0.000000 0.000000 -1.000000
vn 0.000000 0.000000 -1.000000
vn 0.000000 0.000000 -1.000000
vn 0.000000 0.000000 -1.000000
vn 0.000000 0.000000 -1.000000
vn 0.000000 0.000000 -1.000000
vn 1.000000 -0.000000 0.000000
vn 1.000000 0.000000 0.000000
vn 1.000000 -0.000000 0.000000
vn 1.000000 0.000000 0.000000
vn 1.000000 0.000000 0.000000
vn 1.000000 -0.000000 0.000000
vn 1.000000 -0.000000 0.000000
vn 1.000000 -0.000001 0.000000
vn 1.000000 -0.000001 0.000000
vn 1.000000 -0.000000 0.000000
vn 0.000000 0.999996 0.002823
vn 0.000000 0.999996 0.002823
vn 0.000000 0.999996 0.002823
vn 0.000000 0.999996 0.002823
vn 0.000000 0.000000 1.000000
vn 0.000000 0.000000 1.000000
vn 0.000000 0.000000 1.000000
vn 0.000000 0.000000 1.000000
vn 0.000000 -1.000000 0.000000
vn 0.000000 -1.000000 0.000000
vn 0.000000 -1.000000 0.000000
vn 0.000000 -1.000000 0.000000
vn 0.000000 -0.000306 -1.000000
vn 0.000000 -0.000306 -1.000000
vn 0.000000 -0.000306 -1.000000
vn 0.000000 -0.000306 -1.000000
vn 0.000000 0.999997 0.002556
vn 0.000000 0.999998 0.001761
vn 0.000000 0.999998 0.001761
vn 0.000000 0.999997 0.002556
vn 1.000000 0.000000 0.000000
vn 1.000000 0.000000 0.000000
vn 1.000000 0.000002 0.000000
vn 1.000000 0.000000 0.000000
vn 1.000000 0.000000 0.000000
vn 1.000000 0.000000 0.000000
vn 1.000000 0.000000 0.000000
vn 1.000000 0.000000 0.000000
vn -1.000000 0.000000 0.000000
vn -1.000000 0.000000 0.000000
vn -1.000000 0.000000 0.000000
vn -1.000000 0.000000 0.000000
vn -1.000000 0.000000 0.000000
vn -1.000000 0.000000 0.000000
vn 0.000000 -1.000000 0.000000
vn 0.000000 -1.000000 0.000000
vn 0.000000 -1.000000 0.000000
vn 0.000000 -1.000000 0.000000
vn 0.000000 -1.000000 0.000000
vn 0.000000 -1.000000 0.000000
vn 0.000000 -1.000000 0.000000
vn 0.000000 -1.000000 0.000000
vn 0.000000 -1.000000 0.000000
vn 0.000000 -1.000000 0.000000
vn 0.000000 -1.000000 0.000000
vn 0.000000 -1.000000 0.000000
vn 1.000000 -0.000001 0.000000
vn 1.000000 -0.000000 0.000000
vn 1.000000 -0.000000 0.000000
vn 1.000000 -0.000001 0.000000
vn 0.000000 -1.000000 0.000000
vn 0.000000 -1.000000 -0.000000
vn 0.000000 -1.000000 -0.000000
vn 0.000000 -1.000000 0.000000
vn 0.000000 0.999998 0.002008
vn 0.000000 0.999998 0.002008
vn 1.000000 0.000000 0.000000
vn 1.000000 0.000000 0.000000
vn -1.000000 0.000000 0.000000
vn -1.000000 0.000000 0.000000
vn -1.000000 0.000000 0.000000
vn -1.000000 0.000000 0.000000
vn -1.000000 0.000000 0.000000
vn 0.000000 -1.000000 0.000000
vn 0.000000 -1.000000 0.000000
vn 0.000000 -1.000000 0.000000
vn 0.000000 -1.000000 0.000000
vn 0.000000 -1.000000 0.000000
vn 0.000000 -1.000000 0.000000
vn 0.000000 -1.000000 0.000000
vn 0.000000 -1.000000 0.000000
vn 0.000000 0.000000 1.000000
vn 0.000000 0.000000 1.000000
vn 0.000000 0.000000 1.000000
vn 0.000000 0.000000 1.000000
vn 0.000305 -0.000135 1.000000
vn 0.000000 0.000000 1.000000
vn 0.000000 0.000000 1.000000
vn 0.000412 -0.000183 1.000000
vn 0.000000 0.000000 1.000000
vn 0.000000 0.000000 1.000000
vn 0.000000 0.000000 1.000000
vn 0.000000 0.000000 1.000000
vn 0.000000 0.000000 1.000000
vn -0.000305 -0.000135 1.000000
vn -0.000412 -0.000183 1.000000
vn 0.000000 0.000000 1.000000
vn 0.000000 0.000000 1.000000
vn 0.000000 0.000000 1.000000
vn 0.000000 -0.000483 1.000000
vn -0.000000 -0.000655 1.000000
vn -1.000000 0.000000 0.000000
s 1
g polySurface779 polySurface408 pTorus12
usemtl initialShadingGroup
f 19/1/1 18/4/2 5/3/3 1/2/4
s off
f 5/3/5 10/7/6 6/6/7 2/5/8
s 2
f 6/6/9 10/7/10 84/9/11 83/8/12
s 3
f 88/10/13 87/13/14 9/12/15 4/11/16
s 2
f 10/7/10 17/15/17 85/14/18 84/9/11
s 3
f 87/13/14 86/17/19 13/16/20 9/12/15
s 4
f 18/18/21 17/21/22 10/20/23 5/19/24
f 9/22/25 13/23/26 17/21/22 18/18/21
s 1
f 4/11/27 9/12/28 18/4/2 19/1/1
s 2
f 86/24/29 85/14/18 17/15/17 13/16/30
s 5
f 19/25/31 1/28/32 22/27/33 33/26/34
s off
f 22/27/35 20/31/36 23/30/37 26/29/38
s 6
f 23/30/39 82/33/40 81/32/41 26/29/42
s 7
f 88/34/43 4/37/44 25/36/45 89/35/46
s 6
f 26/29/42 81/32/41 80/39/47 32/38/48
s 7
f 89/35/46 25/36/45 29/41/49 90/40/50
s 8
f 33/42/51 22/45/52 26/44/53 32/43/54
f 25/46/55 33/42/51 32/43/54 29/47/56
s 5
f 4/37/57 19/25/31 33/26/34 25/36/58
s 6
f 32/38/48 80/39/47 79/49/59 35/48/60
f 31/50/61 30/53/62 36/52/63 34/51/64
f 90/54/65 29/41/66 37/56/67 91/55/68
f 29/41/66 32/38/48 35/48/60 37/56/67
s 10
f 35/57/69 79/60/70 78/59/71 39/58/72
s off
f 34/61/73 36/64/74 40/63/75 38/62/76
s 11
f 91/65/77 37/68/78 41/67/79 92/66/80
s off
f 37/69/81 35/72/82 39/71/83 41/70/84
s 10
f 43/73/85 58/76/86 57/75/87 42/74/88
s 6
f 44/77/89 59/80/90 58/79/91 43/78/92
f 45/81/93 60/82/94 59/80/90 44/77/89
f 46/83/95 61/84/96 60/82/94 45/81/93
s 2
f 49/85/97 64/88/98 63/87/99 48/86/100
f 65/89/101 64/88/98 49/85/97 50/90/102
s 3
f 66/91/103 65/94/104 50/93/105 51/92/106
f 67/95/107 66/91/103 51/92/106 52/96/108
s 7
f 67/97/109 52/100/110 53/99/111 68/98/112
f 68/98/112 53/99/111 54/102/113 69/101/114
s 6
f 69/103/115 54/106/116 55/105/117 70/104/118
s 11
f 70/107/119 55/110/120 56/109/121 71/108/122
s 10
f 58/76/86 34/112/123 38/111/124 57/75/87
s 6
f 59/80/90 31/50/61 34/51/64 58/79/91
f 60/82/94 27/113/125 31/50/61 59/80/90
f 61/84/96 24/114/126 27/113/125 60/82/94
s 2
f 63/87/99 11/121/127 7/120/128 62/119/129
f 64/88/98 16/122/130 11/121/127 63/87/99
f 14/123/131 16/122/130 64/88/98 65/89/101
s 3
f 12/124/132 14/125/133 65/94/104 66/91/103
f 8/126/134 12/124/132 66/91/103 67/95/107
s 7
f 8/127/135 67/97/109 68/98/112 28/128/136
f 28/128/136 68/98/112 69/101/114 30/129/137
s 6
f 30/53/62 69/103/115 70/104/118 36/52/63
s 11
f 36/130/138 70/107/119 71/108/122 40/131/139
s 16
f 28/128/140 30/129/141 31/50/142 74/132/143
f 75/133/144 27/113/145 24/114/146 21/115/147
f 74/132/143 31/50/142 27/113/145 75/133/144
f 16/122/148 14/123/149 12/124/150 72/134/151
f 11/121/152 16/122/148 72/134/151 73/135/153
f 3/117/154 7/118/155 11/121/152 73/135/153
f 8/126/156 28/128/140 74/132/143 76/136/157
f 76/136/157 74/132/143 75/133/144 77/137/158
f 77/137/158 75/133/144 21/115/147 15/116/159
f 12/124/150 8/126/156 76/136/157 72/134/151
f 72/134/151 76/136/157 77/137/158 73/135/153
f 3/117/154 73/135/153 77/137/158 15/116/159
s 10
f 79/60/70 43/73/85 42/74/88 78/59/71
s 6
f 80/39/47 44/77/89 43/78/92 79/49/59
f 81/32/41 45/81/93 44/77/89 80/39/47
f 82/33/40 46/83/95 45/81/93 81/32/41
s 2
f 84/9/11 48/86/100 47/138/160 83/8/12
f 85/14/18 49/85/97 48/86/100 84/9/11
f 50/90/102 49/85/97 85/14/18 86/24/29
s 3
f 51/92/106 50/93/105 86/17/19 87/13/14
f 52/96/108 51/92/106 87/13/14 88/10/13
s 7
f 52/100/110 88/34/43 89/35/46 53/99/111
f 53/99/111 89/35/46 90/40/50 54/102/113
s 6
f 54/106/116 90/54/65 91/55/68 55/105/117
s 11
f 55/110/120 91/65/77 92/66/80 56/109/121
