# This file uses centimeters as units for non-parametric coordinates.

mtllib Small_Panel.mtl
g default
v -45.199541 -43.963238 -181.084198
v -45.199541 -43.985397 -181.137695
v -45.253038 -43.963238 -181.137695
v -45.275202 -43.909740 -181.137695
v -45.253038 -43.909740 -181.084198
v -45.199541 -43.909740 -181.062042
v -45.199541 -23.675982 -181.084198
v -45.199541 -23.729479 -181.062042
v -45.253038 -23.729479 -181.084198
v -45.275202 -23.729479 -181.137695
v -45.253038 -23.675982 -181.137695
v -45.199541 -23.653822 -181.137695
v -31.527422 -43.963238 -181.137695
v -31.580919 -43.985397 -181.137695
v -31.580919 -43.963238 -181.084198
v -31.580919 -43.909740 -181.062042
v -31.527422 -43.909740 -181.084198
v -31.505259 -43.909740 -181.137695
v -31.527422 -23.675982 -181.137695
v -31.505259 -23.729479 -181.137695
v -31.527422 -23.729479 -181.084198
v -31.580919 -23.729479 -181.062042
v -31.580919 -23.675982 -181.084198
v -31.580919 -23.653822 -181.137695
v -45.275202 -43.909740 -181.818695
v -45.253038 -43.963238 -181.818695
v -45.199541 -43.985397 -181.818695
v -45.199541 -23.653822 -181.818695
v -45.253038 -23.675982 -181.818695
v -45.275202 -23.729479 -181.818695
v -31.580919 -43.985397 -181.818695
v -31.527422 -43.963238 -181.818695
v -31.505259 -43.909740 -181.818695
v -31.505259 -23.729479 -181.818695
v -31.527422 -23.675982 -181.818695
v -31.580919 -23.653822 -181.818695
v -45.243212 -43.953403 -181.094040
v -45.243212 -23.685814 -181.094040
v -31.537256 -43.953403 -181.094040
v -31.537256 -23.685814 -181.094040
vt 0.373626 0.225002
vt 0.126374 0.225002
vt 0.125836 0.250000
vt 0.374164 0.250000
vt 0.375000 0.250836
vt 0.375000 0.499164
vt 0.375930 0.498626
vt 0.375930 0.251374
vt 0.375930 0.225002
vt 0.375930 0.000000
vt 0.375000 0.000000
vt 0.374798 0.225715
vt 0.373626 -0.000000
vt 0.624070 0.251374
vt 0.624071 0.238227
vt 0.375929 0.238227
vt 0.624070 0.225002
vt 0.624070 0.498626
vt 0.625000 0.499164
vt 0.625000 0.250836
vt 0.625836 0.250000
vt 0.874164 0.250000
vt 0.873626 0.225002
vt 0.626374 0.225002
vt 0.626374 0.000000
vt 0.625000 0.000000
vt 0.625202 0.225715
vt 0.624070 -0.000000
vt 0.126374 0.000000
vt 0.375000 0.750000
vt 0.140763 0.281525
vt 0.375000 0.515763
vt 0.375930 0.750000
vt 0.375930 0.524998
vt 0.624070 0.524998
vt 0.624071 0.511773
vt 0.375929 0.511773
vt 0.624070 0.750000
vt 0.875000 0.000000
vt 0.640763 0.468475
vt 0.875000 0.234238
vt 0.873626 -0.000000
vt 0.375000 0.250000
vt 0.625000 0.250000
vt 0.375000 0.500000
vt 0.125000 0.250000
vt 0.875000 0.250000
vt 0.625000 0.500000
vn -0.001579 -0.999545 0.030118
vn 0.001579 -0.999545 0.030118
vn 0.001002 -0.923916 0.382595
vn -0.001002 -0.923916 0.382595
vn -0.001002 -0.382549 0.923935
vn 0.001002 -0.382549 0.923935
vn 0.001619 -0.001094 0.999998
vn -0.001619 -0.001094 0.999998
vn -0.999545 -0.001067 0.030135
vn -0.999999 -0.001095 0.000000
vn -0.923849 -0.382757 0.000000
vn -0.924561 -0.380561 0.018986
vn -0.380515 -0.924580 0.018985
vn -0.382696 -0.923874 0.000000
vn -0.001621 -0.999999 0.000000
vn -0.001619 0.001094 0.999998
vn -0.382556 0.000677 0.923932
vn -0.382556 -0.000677 0.923932
vn -0.923885 -0.000676 0.382670
vn -0.923885 0.000676 0.382670
vn -0.999545 0.001067 0.030135
vn 0.001619 0.001094 0.999998
vn 0.001002 0.382549 0.923935
vn -0.001002 0.382549 0.923935
vn -0.001002 0.923916 0.382595
vn 0.001002 0.923916 0.382595
vn 0.001579 0.999545 0.030118
vn -0.001579 0.999545 0.030118
vn -0.001621 0.999999 0.000000
vn -0.382655 0.923891 0.000000
vn -0.380471 0.924598 0.018985
vn -0.924568 0.380545 0.018979
vn -0.923856 0.382739 0.000000
vn -0.999999 0.001095 0.000000
vn 0.001621 -0.999999 -0.000000
vn 0.382696 -0.923874 -0.000000
vn 0.380507 -0.924583 0.018983
vn 0.924561 -0.380561 0.018996
vn 0.923849 -0.382757 -0.000000
vn 0.999999 -0.001095 -0.000000
vn 0.999545 -0.001067 0.030135
vn 0.999545 0.001067 0.030135
vn 0.923885 0.000676 0.382670
vn 0.923885 -0.000676 0.382670
vn 0.382556 -0.000677 0.923932
vn 0.382556 0.000677 0.923932
vn 0.999999 0.001095 -0.000000
vn 0.923856 0.382739 -0.000000
vn 0.924568 0.380545 0.018997
vn 0.380464 0.924601 0.018980
vn 0.382655 0.923891 -0.000000
vn 0.001621 0.999999 -0.000000
vn -0.325302 -0.325483 0.887829
vn -0.325378 -0.887856 0.325333
vn -0.887914 -0.325185 0.325366
vn -0.325297 0.887882 0.325342
vn -0.325275 0.325457 0.887848
vn -0.887940 0.325194 0.325285
vn 0.887862 -0.325166 0.325528
vn 0.325273 -0.887933 0.325228
vn 0.325354 -0.325535 0.887790
vn 0.325197 0.887972 0.325197
vn 0.887862 0.325166 0.325528
vn 0.325354 0.325535 0.887790
s 1
g polySurface662 polySurface446
usemtl initialShadingGroup
f 2/1/1 14/2/2 15/3/3 1/4/4
s 2
f 1/5/5 15/6/6 16/7/7 6/8/8
s 3
f 4/9/9 25/10/10 26/11/11 3/12/12
s 1
f 3/12/13 26/11/14 27/13/15 2/1/1
s 2
f 6/8/8 8/14/16 9/15/17 5/16/18
s 3
f 5/16/19 9/15/20 10/17/21 4/9/9
s 2
f 8/14/16 22/18/22 23/19/23 7/20/24
s 5
f 7/21/25 23/22/26 24/23/27 12/24/28
f 12/24/28 28/25/29 29/26/30 11/27/31
s 3
f 11/27/32 29/26/33 30/28/34 10/17/21
s 1
f 14/2/2 31/29/35 32/30/36 13/31/37
s 6
f 13/32/38 32/30/39 33/33/40 18/34/41
f 18/34/41 20/35/42 21/36/43 17/37/44
s 2
f 17/37/45 21/36/46 22/18/22 16/7/7
s 6
f 20/35/42 34/38/47 35/39/48 19/40/49
s 5
f 19/41/50 35/39/51 36/42/52 24/23/27
s 3
f 4/9/9 10/17/21 30/28/34 25/10/10
s 2
f 6/8/8 16/7/7 22/18/22 8/14/16
s 6
f 18/34/41 33/33/40 34/38/47 20/35/42
s 5
f 12/24/28 24/23/27 36/42/52 28/25/29
s 1
f 14/2/2 2/1/1 27/13/15 31/29/35
s 2
f 5/16/18 37/43/53 1/5/5 6/8/8
s 1
f 1/4/4 37/43/54 3/12/13 2/1/1
s 3
f 3/12/12 37/43/55 5/16/19 4/9/9
s 5
f 11/27/31 38/44/56 7/21/25 12/24/28
s 2
f 7/20/24 38/44/57 9/15/17 8/14/16
s 3
f 9/15/20 38/44/58 11/27/32 10/17/21
s 6
f 17/37/44 39/45/59 13/32/38 18/34/41
s 1
f 13/31/37 39/46/60 15/3/3 14/2/2
s 2
f 15/6/6 39/45/61 17/37/45 16/7/7
s 5
f 23/22/26 40/47/62 19/41/50 24/23/27
s 6
f 19/40/49 40/48/63 21/36/43 20/35/42
s 2
f 21/36/46 40/48/64 23/19/23 22/18/22
