# This file uses centimeters as units for non-parametric coordinates.

mtllib tube_top.mtl
g default
v -84.246445 62.129868 217.399796
v -84.412025 61.882057 217.399796
v -84.659828 61.716476 217.399796
v -84.952133 61.658333 217.399796
v -85.244446 61.716476 217.399796
v -85.492249 61.882050 217.399796
v -85.657822 62.129852 217.399796
v -85.715973 62.422165 217.399796
v -85.657822 62.714470 217.399796
v -85.492249 62.962280 217.399796
v -85.244446 63.127853 217.399796
v -84.952133 63.186005 217.399796
v -84.659828 63.127853 217.399796
v -84.412025 62.962280 217.399796
v -84.246445 62.714470 217.399796
v -84.188301 62.422165 217.399796
v -84.246445 62.129868 -181.818680
v -84.412025 61.882057 -181.818680
v -84.659828 61.716476 -181.818680
v -84.952133 61.658333 -181.818680
v -85.244446 61.716476 -181.818680
v -85.492249 61.882050 -181.818680
v -85.657822 62.129852 -181.818680
v -85.715973 62.422165 -181.818680
v -85.657822 62.714470 -181.818680
v -85.492249 62.962280 -181.818680
v -85.244446 63.127853 -181.818680
v -84.952133 63.186005 -181.818680
v -84.659828 63.127853 -181.818680
v -84.412025 62.962280 -181.818680
v -84.246445 62.714470 -181.818680
v -84.188301 62.422165 -181.818680
vt 0.375000 0.312500
vt 0.390625 0.312500
vt 0.390625 0.688440
vt 0.375000 0.688440
vt 0.406250 0.312500
vt 0.406250 0.688440
vt 0.421875 0.312500
vt 0.421875 0.688440
vt 0.437500 0.312500
vt 0.437500 0.688440
vt 0.453125 0.312500
vt 0.453125 0.688440
vt 0.468750 0.312500
vt 0.468750 0.688440
vt 0.484375 0.312500
vt 0.484375 0.688440
vt 0.500000 0.312500
vt 0.500000 0.688440
vt 0.515625 0.312500
vt 0.515625 0.688440
vt 0.531250 0.312500
vt 0.531250 0.688440
vt 0.546875 0.312500
vt 0.546875 0.688440
vt 0.562500 0.312500
vt 0.562500 0.688440
vt 0.578125 0.312500
vt 0.578125 0.688440
vt 0.593750 0.312500
vt 0.593750 0.688440
vt 0.609375 0.312500
vt 0.609375 0.688440
vt 0.625000 0.312500
vt 0.625000 0.688440
vn 0.923875 -0.382695 0.000000
vn 0.707120 -0.707094 0.000000
vn 0.707120 -0.707094 0.000000
vn 0.923875 -0.382695 0.000000
vn 0.382690 -0.923877 0.000000
vn 0.382690 -0.923877 0.000000
vn 0.000000 -1.000000 0.000000
vn 0.000000 -1.000000 0.000000
vn -0.382673 -0.923884 0.000000
vn -0.382673 -0.923884 0.000000
vn -0.707107 -0.707107 0.000000
vn -0.707107 -0.707107 0.000000
vn -0.923882 -0.382677 0.000000
vn -0.923882 -0.382677 0.000000
vn -1.000000 0.000000 0.000000
vn -1.000000 0.000000 0.000000
vn -0.923882 0.382677 0.000000
vn -0.923882 0.382677 0.000000
vn -0.707113 0.707100 0.000000
vn -0.707113 0.707100 0.000000
vn -0.382684 0.923879 0.000000
vn -0.382684 0.923879 0.000000
vn 0.000000 1.000000 0.000000
vn 0.000000 1.000000 0.000000
vn 0.382690 0.923877 0.000000
vn 0.382690 0.923877 0.000000
vn 0.707113 0.707100 0.000000
vn 0.707113 0.707100 0.000000
vn 0.923877 0.382691 0.000000
vn 0.923877 0.382691 0.000000
vn 1.000000 0.000000 0.000000
vn 1.000000 0.000000 0.000000
s 1
g polySurface785 polySurface133
usemtl initialShadingGroup
f 1/1/1 2/2/2 18/3/3 17/4/4
f 2/2/2 3/5/5 19/6/6 18/3/3
f 3/5/5 4/7/7 20/8/8 19/6/6
f 4/7/7 5/9/9 21/10/10 20/8/8
f 5/9/9 6/11/11 22/12/12 21/10/10
f 6/11/11 7/13/13 23/14/14 22/12/12
f 7/13/13 8/15/15 24/16/16 23/14/14
f 8/15/15 9/17/17 25/18/18 24/16/16
f 9/17/17 10/19/19 26/20/20 25/18/18
f 10/19/19 11/21/21 27/22/22 26/20/20
f 11/21/21 12/23/23 28/24/24 27/22/22
f 12/23/23 13/25/25 29/26/26 28/24/24
f 13/25/25 14/27/27 30/28/28 29/26/26
f 14/27/27 15/29/29 31/30/30 30/28/28
f 15/29/29 16/31/31 32/32/32 31/30/30
f 16/31/31 1/33/1 17/34/4 32/32/32
